<svg width="120" height="48" viewBox="0 0 120 48" fill="none" xmlns="http://www.w3.org/2000/svg">
  <rect width="120" height="48" rx="16" fill="#0E0F12"/>
  <path d="M26.2 15.4C21.76 15.4 18.4 18.94 18.4 24C18.4 29.06 21.76 32.6 26.2 32.6C29.02 32.6 30.88 31.36 32.2 29.44V32H35.8V15.6H32.2V18.56C30.92 16.66 29.02 15.4 26.2 15.4ZM27.04 18.82C29.62 18.82 31.56 20.72 31.56 24C31.56 27.28 29.62 29.18 27.04 29.18C24.46 29.18 22.52 27.28 22.52 24C22.52 20.72 24.46 18.82 27.04 18.82Z" fill="#FF5DA2"/>
  <path d="M47.44 15.4C42.64 15.4 39.16 18.94 39.16 24C39.16 29.06 42.64 32.6 47.44 32.6C52.24 32.6 55.72 29.06 55.72 24C55.72 18.94 52.24 15.4 47.44 15.4ZM47.44 18.82C49.96 18.82 51.92 20.72 51.92 24C51.92 27.28 49.96 29.18 47.44 29.18C44.92 29.18 42.96 27.28 42.96 24C42.96 20.72 44.92 18.82 47.44 18.82Z" fill="#F7F3ED"/>
  <path d="M71.8 15.6H67.96L62.04 24.12V15.6H58.24V32H62.04V27.28L64.52 24.04L68.08 32H72.2L66.56 21.2L71.8 15.6Z" fill="#F7F3ED"/>
  <path d="M86.2 15.4C82.04 15.4 79 18.08 79 22.24V32H82.8V23.12C82.8 20.48 84.32 18.98 86.72 18.98C89.12 18.98 90.68 20.48 90.68 23.12V32H94.48V22.24C94.48 18.08 91.44 15.4 87.28 15.4H86.2Z" fill="#E6A3B2"/>
</svg>
